<svg width="61" height="61" viewBox="0 0 61 61" fill="none" xmlns="http://www.w3.org/2000/svg">
<circle cx="30.5" cy="30.5" r="30.5" fill="#8449F6"/>
<path d="M21 33H39C42.86 33 46 29.86 46 26C46 22.14 42.86 19 39 19H22C22 16.79 20.21 15 18 15C15.79 15 14 16.79 14 19C14 21.21 15.79 23 18 23C19.476 23 20.752 22.19 21.446 21H39C41.756 21 44 23.244 44 26C44 28.756 41.756 31 39 31H21C17.14 31 14 34.14 14 38C14 41.86 17.14 45 21 45H38.554C39.246 46.19 40.522 47 42 47C44.21 47 46 45.21 46 43C46 40.79 44.21 39 42 39C39.79 39 38 40.79 38 43H21C18.244 43 16 40.756 16 38C16 35.244 18.244 33 21 33Z" fill="white"/>
</svg>
